<svg width="24" height="24" viewBox="0 0 24 24" fill="none" xmlns="http://www.w3.org/2000/svg">
<path d="M21.4393 0.439267C22.025 -0.146454 22.9745 -0.14639 23.5604 0.439267C24.1459 1.025 24.146 1.9746 23.5604 2.56036L14.1199 12.0027L23.5574 21.4422C24.1428 22.0281 24.1431 22.9777 23.5574 23.5633C22.9718 24.1488 22.0221 24.1486 21.4363 23.5633L11.9998 14.1238L2.56329 23.5633C1.97761 24.1487 1.02795 24.1487 0.442197 23.5633C-0.143541 22.9776 -0.143376 22.028 0.442197 21.4422L9.87872 12.0027L0.439267 2.56036C-0.146391 1.97454 -0.146454 1.02498 0.439267 0.439267C1.02509 -0.146391 1.97464 -0.146454 2.56036 0.439267L11.9998 9.88067L21.4393 0.439267Z" fill="#CFCFCF"/>
</svg>
