<svg width="31" height="31" viewBox="0 0 31 31" fill="none" xmlns="http://www.w3.org/2000/svg">
<path d="M15.6569 12.8334C17.1295 12.8334 18.3234 14.0272 18.3235 15.5C18.3235 16.9727 17.1295 18.1666 15.6569 18.1666C14.1841 18.1665 12.9902 16.9726 12.9902 15.5C12.9903 14.0272 14.1841 12.8334 15.6569 12.8334Z" fill="white"/>
<path fill-rule="evenodd" clip-rule="evenodd" d="M14.9391 8.94177C15.152 8.94144 15.3899 8.94177 15.6569 8.94177C17.7929 8.94177 18.0464 8.94983 18.8899 8.98816C19.6696 9.02383 20.0929 9.15395 20.3749 9.26343C20.7482 9.40843 21.0148 9.58157 21.2947 9.86157C21.5747 10.1416 21.7475 10.4087 21.8928 10.782C22.0023 11.0637 22.1332 11.487 22.1687 12.267C22.207 13.1102 22.2151 13.3639 22.2151 15.4988C22.2151 17.6334 22.207 17.8869 22.1687 18.73C22.133 19.5099 22.0023 19.9333 21.8928 20.215C21.7478 20.5882 21.5746 20.8544 21.2947 21.1342C21.0147 21.4142 20.7484 21.5873 20.3749 21.7323C20.0932 21.8423 19.6697 21.9725 18.8899 22.0082C18.0466 22.0465 17.7929 22.0552 15.6569 22.0552C13.5209 22.0552 13.2677 22.0465 12.4244 22.0082C11.6444 21.9722 11.221 21.8418 10.9388 21.7323C10.5656 21.5873 10.299 21.4141 10.019 21.1342C9.73904 20.8542 9.56562 20.5879 9.42029 20.2144C9.3108 19.9327 9.1799 19.5093 9.14441 18.7294C9.10608 17.8862 9.09863 17.6325 9.09863 15.4963C9.09863 13.3601 9.10608 13.1078 9.14441 12.2645C9.18009 11.4847 9.3108 11.0615 9.42029 10.7795C9.56528 10.4062 9.73906 10.1397 10.019 9.85974C10.299 9.57975 10.5655 9.40632 10.9388 9.26099C11.2208 9.15098 11.6444 9.02094 12.4244 8.98511C13.1623 8.95178 13.4484 8.94161 14.9391 8.93994V8.94177ZM15.4469 11.3972C13.2763 11.5072 11.5499 13.3021 11.5498 15.5C11.5498 17.7688 13.3893 19.6076 15.6581 19.6077C17.9269 19.6077 19.7657 17.7689 19.7657 15.5C19.7657 13.2312 17.9269 11.3918 15.6581 11.3917L15.4469 11.3972ZM19.9269 10.2699C19.3969 10.2699 18.9668 10.6998 18.9668 11.23C18.9668 11.76 19.3969 12.1901 19.9269 12.1901C20.4568 12.19 20.8869 11.7599 20.887 11.23C20.887 10.7 20.4569 10.2699 19.9269 10.2699Z" fill="white"/>
<path fill-rule="evenodd" clip-rule="evenodd" d="M15.6562 0.5C23.9405 0.5 30.6562 7.21573 30.6562 15.5C30.6562 23.7843 23.9405 30.5 15.6562 30.5C7.37198 30.5 0.65625 23.7843 0.65625 15.5C0.65625 7.21573 7.37198 0.5 15.6562 0.5ZM15.6575 7.50012C13.4862 7.50013 13.2134 7.50952 12.3604 7.54834C11.5088 7.58733 10.9274 7.72226 10.4188 7.92004C9.89265 8.12438 9.44626 8.39806 9.00159 8.8429C8.55664 9.28752 8.28312 9.73359 8.07812 10.2595C7.87981 10.7683 7.74477 11.3499 7.70642 12.201C7.66825 13.0544 7.6582 13.3275 7.6582 15.5C7.6582 17.6727 7.66775 17.945 7.70642 18.7983C7.7456 19.6499 7.88048 20.2312 8.07812 20.7399C8.28262 21.266 8.55616 21.7125 9.00098 22.1571C9.44544 22.602 9.89181 22.8763 10.4176 23.0806C10.9266 23.2784 11.5083 23.4127 12.3597 23.4517C13.213 23.4905 13.4857 23.5005 15.6581 23.5005C17.8307 23.5005 18.1026 23.4905 18.9558 23.4517C19.8074 23.4127 20.3896 23.2784 20.8986 23.0806C21.4245 22.8763 21.8701 22.602 22.3146 22.1571C22.7596 21.7124 23.033 21.2659 23.238 20.7399C23.4347 20.2311 23.5697 19.6496 23.6097 18.7983C23.6481 17.945 23.658 17.6727 23.658 15.5C23.658 13.3276 23.6481 13.0549 23.6097 12.2017C23.5697 11.35 23.4347 10.7682 23.238 10.2595C23.033 9.73349 22.7595 9.28748 22.3146 8.8429C21.8696 8.3979 21.4246 8.12421 20.8979 7.92004C20.388 7.72226 19.8061 7.58733 18.9546 7.54834C18.1016 7.50952 17.8297 7.50012 15.6575 7.50012Z" fill="white"/>
</svg>
