<svg width="49" height="48" viewBox="0 0 49 48" fill="none" xmlns="http://www.w3.org/2000/svg">
<path d="M24.5 0C37.7548 0 48.5 10.7452 48.5 24C48.5 37.2548 37.7548 48 24.5 48C11.2452 48 0.5 37.2548 0.5 24C0.5 10.7452 11.2452 0 24.5 0ZM24.502 11.1992C21.028 11.1992 20.5915 11.2143 19.2266 11.2764C17.8641 11.3388 16.9339 11.5546 16.1201 11.8711C15.2782 12.198 14.564 12.6359 13.8525 13.3477C13.1406 14.0591 12.703 14.7728 12.375 15.6143C12.0577 16.4283 11.8416 17.3588 11.7803 18.7207C11.7192 20.086 11.7031 20.523 11.7031 23.999C11.7031 27.4753 11.7184 27.911 11.7803 29.2764C11.843 30.6388 12.0588 31.569 12.375 32.3828C12.7022 33.2246 13.1399 33.9389 13.8516 34.6504C14.5627 35.3623 15.2769 35.801 16.1182 36.1279C16.9325 36.4444 17.8633 36.6593 19.2256 36.7217C20.5908 36.7838 21.0271 36.7998 24.5029 36.7998C27.9791 36.7998 28.4142 36.7838 29.7793 36.7217C31.1418 36.6593 32.0734 36.4444 32.8877 36.1279C33.7292 35.801 34.4422 35.3622 35.1533 34.6504C35.8653 33.9389 36.3029 33.2244 36.6309 32.3828C36.9455 31.5687 37.1616 30.6384 37.2256 29.2764C37.2869 27.911 37.3027 27.4753 37.3027 23.999C37.3027 20.5232 37.2869 20.0868 37.2256 18.7217C37.1616 17.359 36.9455 16.4281 36.6309 15.6143C36.3029 14.7726 35.8652 14.059 35.1533 13.3477C34.4413 12.6357 33.7294 12.1978 32.8867 11.8711C32.0708 11.5546 31.1398 11.3388 29.7773 11.2764C28.4125 11.2143 27.9775 11.1992 24.502 11.1992Z" fill="black"/>
<path d="M23.3525 13.5068C23.6933 13.5063 24.0739 13.5068 24.501 13.5068C27.9186 13.5068 28.3242 13.5197 29.6738 13.5811C30.9214 13.6381 31.5986 13.8463 32.0498 14.0215C32.6471 14.2535 33.0737 14.5305 33.5215 14.9785C33.9695 15.4265 34.246 15.8538 34.4785 16.4512C34.6537 16.9018 34.8631 17.5792 34.9199 18.8271C34.9812 20.1763 34.9941 20.5822 34.9941 23.998C34.9941 27.4134 34.9812 27.819 34.9199 29.168C34.8629 30.4158 34.6537 31.0933 34.4785 31.5439C34.2466 32.1412 33.9693 32.567 33.5215 33.0146C33.0735 33.4627 32.6474 33.7397 32.0498 33.9717C31.5992 34.1477 30.9216 34.356 29.6738 34.4131C28.3245 34.4744 27.9186 34.4883 24.501 34.4883C21.0835 34.4883 20.6783 34.4744 19.3291 34.4131C18.0811 34.3555 17.4036 34.1469 16.9521 33.9717C16.3549 33.7397 15.9284 33.4625 15.4805 33.0146C15.0325 32.5666 14.755 32.1406 14.5225 31.543C14.3473 31.0923 14.1378 30.4148 14.0811 29.167C14.0197 27.8179 14.0078 27.4121 14.0078 23.9941C14.0078 20.5762 14.0197 20.1726 14.0811 18.8232C14.1381 17.5755 14.3473 16.8984 14.5225 16.4473C14.7545 15.8499 15.0325 15.4236 15.4805 14.9756C15.9285 14.5276 16.3549 14.2501 16.9521 14.0176C17.4034 13.8416 18.0811 13.6335 19.3291 13.5762C20.5097 13.5228 20.9674 13.5066 23.3525 13.5039V13.5068ZM24.165 17.4346C20.692 17.6105 17.9298 20.4823 17.9297 23.999C17.9297 27.6291 20.8728 30.5712 24.5029 30.5713C28.1331 30.5713 31.0752 27.6292 31.0752 23.999C31.0751 20.369 28.133 17.4258 24.5029 17.4258L24.165 17.4346ZM31.333 15.6328C30.485 15.6328 29.7969 16.3207 29.7969 17.1689C29.7969 18.0169 30.485 18.7051 31.333 18.7051C32.1809 18.705 32.8691 18.0169 32.8691 17.1689C32.8691 16.321 32.181 15.6329 31.333 15.6328Z" fill="black"/>
<path d="M24.5011 19.7344C26.8574 19.7344 28.7678 21.6445 28.7678 24.0011C28.7678 26.3574 26.8574 28.2678 24.5011 28.2678C22.1445 28.2678 20.2344 26.3574 20.2344 24.0011C20.2344 21.6445 22.1445 19.7344 24.5011 19.7344Z" fill="black"/>
</svg>
