<svg width="49" height="48" viewBox="0 0 49 48" fill="none" xmlns="http://www.w3.org/2000/svg">
<path d="M24.5 0C37.7548 0 48.5 10.7452 48.5 24C48.5 37.2548 37.7548 48 24.5 48C11.2452 48 0.5 37.2548 0.5 24C0.5 10.7452 11.2452 0 24.5 0ZM18.6494 20.3789C18.2333 19.9629 17.5588 19.9629 17.1426 20.3789L14.7734 22.7471C11.7418 25.7791 11.7418 30.6946 14.7734 33.7266C17.8054 36.7582 22.7219 36.758 25.7539 33.7266L28.123 31.3584C28.5386 30.9423 28.5388 30.2666 28.123 29.8506C27.7069 29.4345 27.0305 29.4346 26.6143 29.8506L24.2461 32.2188C22.0464 34.4181 18.4799 34.4182 16.2803 32.2188C14.0815 30.0191 14.0812 26.4534 16.2803 24.2539L18.6494 21.8857C19.0652 21.4697 19.0649 20.7951 18.6494 20.3789ZM28.7676 19.7314C28.3515 19.316 27.6768 19.3159 27.2607 19.7314L21.2314 25.7607C20.8157 26.1769 20.8155 26.8525 21.2314 27.2686C21.6474 27.6844 22.322 27.6839 22.7383 27.2686L28.7676 21.2393C29.1834 20.823 29.1836 20.1475 28.7676 19.7314ZM35.2256 13.2734C32.1936 10.2422 27.279 10.242 24.2471 13.2734L21.8789 15.6426C21.4629 16.0588 21.4628 16.7333 21.8789 17.1494C22.2951 17.565 22.9697 17.5652 23.3857 17.1494L25.7539 14.7812C27.9536 12.5819 31.5191 12.5818 33.7188 14.7812C35.9183 16.9809 35.9182 20.5464 33.7188 22.7461L31.3506 25.1143C30.9349 25.5302 30.9353 26.2049 31.3506 26.6211C31.7667 27.0372 32.4412 27.0371 32.8574 26.6211L35.2256 24.2529C38.2574 21.2208 38.2576 16.3054 35.2256 13.2734Z" fill="black"/>
</svg>
