<svg width="31" height="31" viewBox="0 0 31 31" fill="none" xmlns="http://www.w3.org/2000/svg">
<path fill-rule="evenodd" clip-rule="evenodd" d="M15.6562 0.5C23.9405 0.5 30.6562 7.21573 30.6562 15.5C30.6562 23.7843 23.9405 30.5 15.6562 30.5C7.37198 30.5 0.65625 23.7843 0.65625 15.5C0.65625 7.21573 7.37198 0.5 15.6562 0.5ZM23.025 10.782C23.2769 9.77208 22.6399 9.31378 21.9801 9.61316L7.53125 15.1844C6.54503 15.58 6.55057 16.1307 7.3512 16.3759L11.0591 17.5331L19.6431 12.1174C20.0483 11.8717 20.4207 12.004 20.1155 12.2749L13.1599 18.5518L12.9048 22.375C13.2797 22.375 13.4456 22.2037 13.6549 22.0002L15.4567 20.2485L19.2048 23.0177C19.8945 23.3982 20.3922 23.2012 20.5641 22.3774L23.025 10.782Z" fill="white"/>
</svg>
