<svg width="49" height="48" viewBox="0 0 49 48" fill="none" xmlns="http://www.w3.org/2000/svg">
<path d="M24.5 0C37.7548 0 48.5 10.7452 48.5 24C48.5 37.2548 37.7548 48 24.5 48C11.2452 48 0.5 37.2548 0.5 24C0.5 10.7452 11.2452 0 24.5 0ZM36.29 16.4521C36.6931 14.8363 35.6739 14.103 34.6182 14.582L11.5 23.4961C9.92205 24.129 9.93091 25.01 11.2119 25.4023L17.1445 27.2539L30.8789 18.5889C31.5273 18.1957 32.1232 18.4073 31.6348 18.8408L20.5059 28.8838L20.0977 35.001C20.6975 35.0009 20.963 34.7269 21.2979 34.4014L24.1807 31.5986L30.1777 36.0293C31.2812 36.6381 32.0776 36.3229 32.3525 35.0049L36.29 16.4521Z" fill="black"/>
</svg>
