<svg width="31" height="31" viewBox="0 0 31 31" fill="none" xmlns="http://www.w3.org/2000/svg">
<path fill-rule="evenodd" clip-rule="evenodd" d="M15.6562 0.5C23.9405 0.5 30.6562 7.21573 30.6562 15.5C30.6562 23.7843 23.9405 30.5 15.6562 30.5C7.37198 30.5 0.65625 23.7843 0.65625 15.5C0.65625 7.21573 7.37198 0.5 15.6562 0.5ZM15.3517 11.5016C14.4934 11.4931 13.7674 11.505 13.3558 11.7024C13.0821 11.8337 12.8708 12.1265 12.9994 12.1437C13.1582 12.1644 13.5183 12.2391 13.7092 12.494C13.9557 12.8236 13.9473 13.5627 13.9473 13.5627C13.9484 13.5787 14.0872 15.6009 13.6165 15.8528C13.2925 16.0264 12.8476 15.6721 11.8922 14.0522C11.4082 13.2313 11.0417 12.3243 11.0341 12.3054C11.0341 12.3054 10.9626 12.1339 10.8351 12.0417C10.6834 11.9322 10.4726 11.897 10.4658 11.8959L8.18005 11.9105C8.18005 11.9105 7.83608 11.9194 7.71008 12.0662C7.59822 12.196 7.70154 12.4659 7.70154 12.4659C7.71367 12.4938 9.49822 16.5828 11.5181 18.6476C13.3737 20.5434 15.4798 20.4229 15.4866 20.4225H16.443C16.4492 20.4218 16.7331 20.3892 16.8794 20.2351C17.013 20.0941 17.0101 19.8293 17.01 19.8225C17.01 19.8225 16.9925 18.5631 17.588 18.3772C18.1748 18.195 18.9284 19.5947 19.7279 20.1332C20.3233 20.5344 20.7775 20.4542 20.7905 20.4518L22.928 20.4225C22.9336 20.4221 24.0439 20.3526 23.5157 19.4923C23.4719 19.4216 23.2065 18.8536 21.927 17.6875C20.5866 16.467 20.7663 16.6643 22.3799 14.5527C23.3628 13.2668 23.7558 12.4818 23.6329 12.1461C23.5163 11.8251 22.7931 11.9105 22.7931 11.9105L20.3877 11.9252C20.3851 11.9248 20.2083 11.9019 20.077 11.9789C19.948 12.055 19.864 12.2322 19.864 12.2322C19.8608 12.2405 19.4817 13.2307 18.976 14.0736C17.9047 15.8587 17.4764 15.953 17.3011 15.8424C16.8937 15.5834 16.9954 14.8038 16.9954 14.25C16.9954 12.5194 17.2627 11.7981 16.4747 11.6115C16.2135 11.5493 16.0206 11.5085 15.3517 11.5016Z" fill="white"/>
</svg>
