<svg width="49" height="48" viewBox="0 0 49 48" fill="none" xmlns="http://www.w3.org/2000/svg">
<path d="M24.5 0C37.7548 0 48.5 10.7452 48.5 24C48.5 37.2548 37.7548 48 24.5 48C11.2452 48 0.5 37.2548 0.5 24C0.5 10.7452 11.2452 0 24.5 0ZM24.0127 17.6025C22.6394 17.589 21.4779 17.608 20.8193 17.9238C20.3814 18.1339 20.0432 18.6023 20.249 18.6299C20.5031 18.6631 21.0792 18.7826 21.3848 19.1904C21.7792 19.7177 21.7656 20.9004 21.7656 20.9004C21.7674 20.9259 21.9895 24.1615 21.2363 24.5645C20.718 24.8422 20.0062 24.2754 18.4775 21.6836C17.7032 20.3701 17.1167 18.9189 17.1045 18.8887C17.1045 18.8887 16.9902 18.6143 16.7861 18.4668C16.5435 18.2915 16.2062 18.2352 16.1953 18.2334L12.5381 18.2568C12.5381 18.2568 11.9877 18.2711 11.7861 18.5059C11.6071 18.7136 11.7725 19.1455 11.7725 19.1455C11.7919 19.19 14.6472 25.7325 17.8789 29.0361C20.8479 32.0695 24.2177 31.8766 24.2285 31.876H25.7588C25.7688 31.8749 26.2229 31.8227 26.457 31.5762C26.6709 31.3505 26.6662 30.9269 26.666 30.916C26.666 30.916 26.638 28.9009 27.5908 28.6035C28.5297 28.312 29.7354 30.5515 31.0146 31.4131C31.9672 32.055 32.6939 31.9267 32.7148 31.9229L36.1348 31.876C36.1437 31.8754 37.9202 31.7641 37.0752 30.3877C37.0051 30.2746 36.5804 29.3657 34.5332 27.5C32.3886 25.5472 32.6762 25.8628 35.2578 22.4844C36.8304 20.4269 37.4593 19.1709 37.2627 18.6338C37.076 18.1202 35.9189 18.2568 35.9189 18.2568L32.0703 18.2803C32.0662 18.2797 31.7833 18.243 31.5732 18.3662C31.3668 18.4879 31.2324 18.7715 31.2324 18.7715C31.2273 18.7848 30.6207 20.3691 29.8115 21.7178C28.0975 24.5739 27.4123 24.7248 27.1318 24.5479C26.4799 24.1335 26.6426 22.886 26.6426 22C26.6426 19.2311 27.0704 18.077 25.8096 17.7783C25.3916 17.6788 25.0829 17.6136 24.0127 17.6025Z" fill="black"/>
</svg>
